<svg xmlns="http://www.w3.org/2000/svg" xmlns:xlink="http://www.w3.org/1999/xlink" xmlns:inkscape="http://www.inkscape.org/namespaces/inkscape" version="1.1" width="1381" height="527" viewBox="0 0 1381 527">
<defs>
<clipPath id="clip_1">
<path transform="matrix(1,0,0,-1,0,527)" d="M0 527H1381V0H0Z"/>
</clipPath>
</defs>
<g inkscape:groupmode="layer" inkscape:label="NEXT-v&#xE4;rillinen-logo">
<g inkscape:groupmode="layer" inkscape:label="NEXT-musta-logo">
<g clip-path="url(#clip_1)">
<path transform="matrix(1,0,0,-1,336.7373,303.7079)" d="M0 0C6.775-14.377 12.814-27.28 18.116-38.707 24.404-52.1 30.295-64.805 35.79-76.823 36.968-79.38 38.789-81.45 41.246-83.03 43.708-84.607 46.313-85.399 49.068-85.403 53.203-85.407 56.652-83.981 59.41-81.133 62.172-78.28 63.551-74.885 63.556-70.949L63.824 156.144C63.827 158.902 62.943 161.164 61.174 162.938 59.404 164.713 57.144 165.601 54.385 165.604 51.63 165.607 49.318 164.725 47.443 162.954 45.571 161.185 44.632 158.925 44.628 156.167L44.43 98.135C44.427 95.38 43.441 93.07 41.469 91.199 39.501 89.332 37.138 88.399 34.378 88.402 31.623 88.405 29.313 89.344 27.442 91.216 25.575 93.091 24.641 95.404 24.645 98.158L24.843 156.19C24.852 164.458 27.717 171.395 33.431 176.999 39.15 182.603 46.14 185.4 54.408 185.39 62.677 185.38 69.614 182.567 75.217 176.95 80.821 171.332 83.619 164.389 83.61 156.121L83.342-70.973C83.336-75.697 82.445-80.075 80.668-84.111 78.892-88.142 76.429-91.733 73.273-94.881 70.122-98.024 66.474-100.484 62.338-102.251 58.202-104.017 53.771-104.898 49.045-104.893 42.355-104.885 36.201-103.106 30.595-99.556 24.989-96.005 20.813-91.174 18.062-85.071 11.581-71.28 5.69-58.723 .388-47.398-4.915-36.068-10.953-23.169-17.729-8.691-24.504 5.787-39.059 36.601-39.059 36.601-46.147 51.957-53.086 66.82-59.878 81.193-66.67 95.562-72.724 108.458-78.04 119.878-84.344 133.265-90.249 145.962-95.759 157.974-96.94 160.53-98.763 162.597-101.222 164.175-103.686 165.748-106.292 166.538-109.047 166.538-113.182 166.538-116.629 165.107-119.384 162.256-122.142 159.399-123.518 156.003-123.518 152.068V-75.026C-123.518-77.785-122.631-80.045-120.86-81.817-119.088-83.59-116.827-84.475-114.068-84.475-111.313-84.475-109.002-83.59-107.129-81.817-105.259-80.045-104.323-77.785-104.323-75.026V93.006C-104.323 95.76-103.34 98.072-101.37 99.945-99.404 101.814-97.041 102.751-94.282 102.751-91.527 102.751-89.216 101.814-87.343 99.945-85.473 98.072-84.537 95.76-84.537 93.006V-75.026C-84.537-83.294-87.393-90.234-93.101-95.845-98.813-101.456-105.8-104.261-114.068-104.261-122.337-104.261-129.277-101.456-134.887-95.845-140.498-90.234-143.304-83.294-143.304-75.026V152.068C-143.304 156.792-142.417 161.171-140.646 165.209-138.874 169.242-136.415 172.836-133.263 175.987-130.116 179.134-126.471 181.598-122.337 183.37-118.203 185.142-113.773 186.028-109.047 186.028-102.357 186.028-96.201 184.256-90.59 180.713-84.981 177.169-80.799 172.342-78.04 166.242-71.543 152.459-65.637 139.909-60.322 128.59-55.006 117.267-48.952 104.375-42.16 89.905-35.368 75.435-28.428 60.618-21.341 45.461-21.341 45.461-6.775 14.381 0 0"/>
<path transform="matrix(1,0,0,-1,465.5158,136.32459)" d="M0 0C-3 2-3.156 6.353-3.156 7.733-3.156 10.487-2.275 12.981-.055 14.672 3 17 13.375 16.873 13.375 16.873H161.849C165.983 16.873 169.822 16.084 173.365 14.51 176.91 12.932 180.011 10.768 182.668 8.014 185.326 5.254 187.393 2.056 188.869-1.584 190.346-5.229 191.085-9.114 191.085-13.249 190.687-21.324 187.587-28.065 181.782-33.477 175.973-38.895 169.033-41.599 160.963-41.599H34.342C26.465-41.599 19.723-44.21 14.113-49.424 8.502-54.643 5.498-61.089 5.105-68.767 4.907-72.901 5.548-76.741 7.025-80.284 8.502-83.828 10.518-86.979 13.079-89.734 15.635-92.493 18.69-94.657 22.233-96.231 25.778-97.809 29.616-98.593 33.751-98.593H132.089C136.223-98.593 140.109-99.382 143.754-100.956 147.393-102.534 150.546-104.698 153.203-107.453 155.861-110.212 157.928-113.46 159.404-117.198 160.881-120.94 161.518-124.876 161.324-129.01 161.126-137.085 158.121-143.776 152.317-149.091 146.508-154.407 139.568-157.064 131.498-157.064H52.651C45.955-157.064 39.703-158.393 33.898-161.051 28.089-163.709 23.018-167.252 18.69-171.682 14.358-176.112 11.012-181.28 8.649-187.186 6.286-193.092 5.202-199.395 5.401-206.086 5.594-212.583 7.025-218.59 9.683-224.1 12.34-229.614 15.885-234.435 20.313-238.57 24.743-242.704 29.81-245.953 35.523-248.315 41.23-250.677 47.335-251.858 53.832-251.858H161.258C164.013-251.858 166.375-250.973 168.346-249.2 170.311-247.429 171.395-245.168 171.594-242.409 171.594-239.655 170.657-237.291 168.789-235.321 166.915-233.355 164.603-232.368 161.849-232.368H49.698C47.136-232.368 44.774-231.482 42.61-229.71 41.821-228.727 41.134-227.644 40.543-226.463 39.953-225.282 39.657-224.003 39.657-222.623 39.657-219.868 40.69-217.557 42.758-215.683 44.825-213.814 47.234-212.878 49.992-212.878H161.849C165.983-212.878 169.822-213.667 173.365-215.24 176.91-216.818 180.011-218.982 182.668-221.737 185.326-224.497 187.393-227.744 188.869-231.482 190.346-235.225 191.085-239.161 191.085-243.295 190.687-251.369 187.587-258.06 181.782-263.375 175.973-268.692 169.033-271.348 160.963-271.348H53.832C44.774-271.348 36.16-269.628 27.992-266.181 19.821-262.739 12.636-258.06 6.434-252.154 .233-246.247-4.69-239.309-8.331-231.335-11.976-223.361-13.896-214.848-14.09-205.79-14.288-196.341-12.663-187.481-9.217-179.212-5.774-170.944-.998-163.709 5.105-157.507 11.205-151.306 18.344-146.433 26.515-142.89 34.683-139.346 43.395-137.574 52.651-137.574H132.089C135.236-137.574 137.501-136.688 138.881-134.916 140.846-132.95 141.834-130.685 141.834-128.124 142.028-125.37 141.095-123.007 139.029-121.037 136.961-119.071 134.548-118.083 131.793-118.083H33.751C27.055-118.083 20.706-116.805 14.704-114.245 8.695-111.688 3.528-108.145-.8-103.613-5.134-99.087-8.529-93.822-10.989-87.815-13.453-81.811-14.583-75.365-14.385-68.471-14.192-61.975-12.761-55.921-10.103-50.31-7.444-44.699-3.901-39.78 .529-35.545 4.957-31.313 10.126-28.014 16.031-25.652 21.938-23.289 28.14-22.108 34.636-22.108H161.849C164.603-22.108 166.915-21.126 168.789-19.155 170.657-17.189 171.594-14.827 171.594-12.068 171.395-9.313 170.311-7.001 168.346-5.128 166.375-3.259 164.013-2.323 161.258-2.323H13.375C13.375-2.323 4.16-2.773 0 0"/>
<path transform="matrix(1,0,0,-1,690.856,165.2247)" d="M0 0C-3.152 4.919-4.725 10.04-4.725 15.356-4.725 20.672-3.498 25.59-1.033 30.121 1.426 34.648 4.919 38.39 9.45 41.343 13.977 44.296 19.195 45.773 25.101 45.773H26.282C31.399 45.773 36.125 44.592 40.457 42.229 44.785 39.866 48.329 36.517 51.089 32.188L94.204-34.256C95.777-36.618 97.942-37.799 100.7-37.799 103.455-37.799 105.522-36.618 106.902-34.256L151.198 32.484C153.953 36.618 157.496 39.866 161.83 42.229 166.158 44.592 170.882 45.773 176.004 45.773H176.299C182.206 45.773 187.42 44.296 191.951 41.343 196.477 38.39 199.971 34.699 202.435 30.269 204.893 25.84 206.126 20.916 206.126 15.503 206.126 10.087 204.547 4.919 201.401 0L160.352-63.787C158.383-66.74 155.628-68.216 152.085-68.216 148.144-68.216 145.241-66.546 143.373-63.196 141.499-59.851 141.647-56.506 143.815-53.156L184.863 10.631C186.044 12.403 186.636 14.175 186.636 15.947 186.636 17.718 186.192 19.389 185.307 20.967 184.42 22.54 183.189 23.818 181.615 24.806 180.037 25.789 178.265 26.282 176.299 26.282H176.004C172.262 26.282 169.405 24.704 167.441 21.558L113.103-60.538C111.525-62.707 109.656-64.378 107.492-65.559 105.324-66.74 103.062-67.33 100.7-67.33 98.14-67.33 95.726-66.74 93.465-65.559 91.2-64.378 89.28-62.707 87.706-60.538L34.846 21.558C32.678 24.704 29.826 26.282 26.282 26.282H25.101C23.131 26.282 21.36 25.789 19.786 24.806 18.207 23.818 16.98 22.54 16.095 20.967 15.208 19.389 14.766 17.668 14.766 15.799 14.766 13.925 15.356 12.204 16.537 10.631L76.78-82.096C78.354-84.459 80.324-86.281 82.686-87.559 85.049-88.842 87.605-89.479 90.365-89.479H121.963C124.718-89.479 127.278-90.171 129.64-91.546 132.003-92.925 133.969-94.697 135.547-96.861 137.91-100.603 141.01-105.425 144.848-111.332 148.688-117.238 152.822-123.587 157.252-130.379 161.682-137.171 166.208-144.065 170.836-151.051 175.46-158.041 179.792-164.635 183.83-170.837 187.862-177.038 191.407-182.404 194.461-186.931 197.511-191.462 199.628-194.609 200.81-196.382 204.155-201.304 205.83-206.523 205.83-212.032 205.83-217.547 204.547-222.566 201.992-227.092 199.43-231.624 195.887-235.362 191.36-238.314 186.829-241.267 181.615-242.744 175.708-242.744 170.786-242.744 166.158-241.563 161.83-239.201 157.496-236.839 153.953-233.59 151.198-229.456L106.902-163.306C105.522-160.944 103.455-159.763 100.7-159.763 97.942-159.763 95.777-160.944 94.204-163.306L51.089-229.16C48.329-233.493 44.785-236.839 40.457-239.201 36.125-241.563 31.399-242.744 26.282-242.744H25.692C19.786-242.744 14.516-241.267 9.893-238.314 5.265-235.362 1.722-231.624-.739-227.092-3.202-222.566-4.383-217.547-4.282-212.032-4.185-206.523-2.562-201.304 .591-196.382L39.572-137.319C41.537-134.366 44.296-132.889 47.84-132.889 51.776-132.889 54.632-134.615 56.404-138.057 58.175-141.504 57.977-144.9 55.813-148.245L16.833-207.308C14.862-210.657 14.812-214.1 16.685-217.643 18.553-221.187 21.558-222.958 25.692-222.958H26.282C30.218-222.958 33.074-221.483 34.846-218.528L87.706-137.614C91.052-132.889 95.385-130.527 100.7-130.527 103.062-130.527 105.324-131.071 107.492-132.151 109.656-133.235 111.525-134.956 113.103-137.319L167.441-218.528C169.212-221.483 171.967-222.958 175.708-222.958 179.844-222.958 182.843-221.187 184.716-217.643 186.584-214.1 186.437-210.657 184.272-207.308L124.916-116.352C121.764-111.433 117.237-108.969 111.332-108.969H79.733C76.974-108.969 74.418-108.282 72.056-106.902 69.693-105.527 67.722-103.755 66.149-101.587 63.39-97.258 59.846-91.744 55.518-85.049 51.185-78.359 46.557-71.221 41.638-63.639 36.716-56.063 31.792-48.533 26.873-41.048 18.405-28.055 9.45-14.374 0 0"/>
<path transform="matrix(1,0,0,-1,1187.5982,147.68579)" d="M0 0C0-4.134-.796-7.973-2.362-11.517-3.942-15.061-6.06-18.168-8.718-20.826-11.376-23.484-14.47-25.602-18.014-27.168-21.557-28.748-25.307-29.531-29.235-29.531H-70.619C-73.38-29.531-75.691-28.555-77.566-26.578-79.44-24.613-80.365-22.251-80.365-19.49-80.365-16.743-79.44-14.432-77.566-12.557-75.691-10.682-73.38-9.745-70.619-9.745H-29.235C-26.488-9.745-24.177-8.821-22.302-6.946-20.428-5.072-19.49-2.761-19.49 0-19.49 2.748-20.428 5.059-22.302 6.933-24.177 8.808-26.488 9.745-29.235 9.745H-92.472C-95.233 9.745-97.544 8.808-99.418 6.933-101.293 5.059-102.217 2.748-102.217 0V-230.046C-102.217-238.315-105.029-245.261-110.64-250.872-116.251-256.482-123.184-259.281-131.453-259.281-139.722-259.281-146.668-256.482-152.279-250.872-157.889-245.261-160.689-238.315-160.689-230.046V-38.981C-160.689-36.233-161.677-33.961-163.642-32.189-165.619-30.417-167.981-29.531-170.729-29.531H-234.556C-242.825-29.531-249.771-26.681-255.382-20.967-260.993-15.266-263.792-8.269-263.792 0-263.792 8.269-260.993 15.202-255.382 20.813-249.771 26.424-242.825 29.236-234.556 29.236H-151.239C-148.491 29.236-146.18 28.298-144.305 26.424-142.431 24.549-141.493 22.238-141.493 19.49-141.493 16.73-142.431 14.419-144.305 12.544-146.18 10.67-148.491 9.745-151.239 9.745H-234.556C-237.317 9.745-239.577 8.808-241.348 6.933-243.12 5.059-244.006 2.748-244.006 0-244.006-2.761-243.12-5.072-241.348-6.946-239.577-8.821-237.317-9.745-234.556-9.745H-170.729C-161.677-9.745-154.538-12.608-149.326-18.309-144.113-24.023-141.493-30.918-141.493-38.981V-230.046C-141.493-232.806-140.518-235.066-138.541-236.838-136.576-238.61-134.213-239.496-131.453-239.496-128.705-239.496-126.394-238.61-124.52-236.838-122.645-235.066-121.708-232.806-121.708-230.046V0C-121.708 8.269-118.909 15.202-113.298 20.813-107.687 26.424-100.741 29.236-92.472 29.236H-29.235C-25.307 29.236-21.557 28.491-18.014 27.014-14.47 25.538-11.376 23.471-8.718 20.813-6.06 18.155-3.942 15.061-2.362 11.517-.796 7.973 0 4.134 0 0"/>
</g>
</g>
</g>
</svg>
